<svg id="svg" version="1.1" xmlns="http://www.w3.org/2000/svg" xmlns:xlink="http://www.w3.org/1999/xlink" width="400" height="380.54711246200606" viewBox="0, 0, 400,380.54711246200606"><g id="svgg"><path id="path0" d="M189.153 78.556 C 189.153 104.812,189.049 126.565,188.922 126.896 C 188.713 127.440,184.285 127.498,142.680 127.498 L 96.670 127.498 96.670 143.100 L 96.670 158.703 142.816 158.800 L 188.963 158.896 189.060 206.760 L 189.156 254.623 204.664 254.524 L 220.171 254.424 220.268 206.565 L 220.364 158.706 266.597 158.706 L 312.830 158.706 313.039 157.850 C 313.153 157.379,313.199 150.400,313.141 142.341 L 313.035 127.688 266.700 127.591 L 220.364 127.495 220.268 79.256 L 220.171 31.018 204.662 30.919 L 189.153 30.819 189.153 78.556 M343.292 340.838 L 343.292 359.317 345.290 359.202 L 347.288 359.087 347.387 340.723 L 347.486 322.360 345.389 322.360 L 343.292 322.360 343.292 340.838 M143.724 324.290 C 141.706 325.878,142.756 328.830,145.340 328.830 C 147.619 328.830,148.277 325.022,146.190 323.905 C 145.145 323.346,144.870 323.389,143.724 324.290 M115.819 327.171 C 115.571 327.272,115.002 328.536,114.555 329.979 C 113.788 332.456,113.643 332.653,111.962 333.476 C 109.355 334.753,109.269 335.974,111.775 336.134 L 113.606 336.251 113.796 345.766 C 113.997 355.787,114.134 356.581,115.946 358.193 C 118.982 360.894,125.801 360.530,125.524 357.681 L 125.404 356.448 122.612 356.435 C 117.982 356.414,117.983 356.416,117.983 345.174 L 117.983 336.061 121.598 336.061 L 125.214 336.061 125.214 334.539 L 125.214 333.016 121.598 333.016 L 117.983 333.016 117.983 330.202 C 117.983 327.115,117.526 326.475,115.819 327.171 M66.559 333.161 C 62.887 334.473,61.496 336.473,61.728 340.110 C 61.945 343.519,63.368 344.816,69.838 347.502 C 75.386 349.805,76.804 351.297,75.887 353.868 C 74.933 356.546,68.654 357.427,64.020 355.533 C 62.913 355.080,61.929 354.710,61.832 354.710 C 61.255 354.710,61.715 358.458,62.322 358.701 C 65.808 360.096,70.167 360.389,73.709 359.466 C 81.643 357.400,82.194 348.710,74.596 345.491 C 73.654 345.092,72.540 344.620,72.122 344.443 C 71.703 344.266,70.527 343.806,69.509 343.421 C 61.050 340.224,66.426 333.909,75.331 336.582 C 76.468 336.923,77.589 337.203,77.823 337.203 C 78.386 337.203,79.331 334.554,78.916 334.140 C 77.621 332.847,69.285 332.187,66.559 333.161 M92.342 333.172 C 83.002 336.644,82.058 353.940,90.961 358.478 C 96.330 361.215,105.484 360.118,105.731 356.708 C 105.865 354.856,105.768 354.821,102.950 355.676 C 95.428 357.959,89.955 355.240,89.203 348.846 L 88.955 346.732 97.855 346.629 L 106.755 346.527 106.714 343.482 C 106.607 335.574,99.532 330.499,92.342 333.172 M162.969 333.620 C 161.882 334.162,160.652 335.039,160.235 335.568 C 159.699 336.249,159.429 336.379,159.312 336.010 C 159.221 335.724,158.991 334.976,158.800 334.348 C 158.491 333.333,158.287 333.206,156.962 333.206 L 155.471 333.206 155.471 346.147 L 155.471 359.087 157.469 359.202 L 159.467 359.317 159.484 351.209 C 159.510 338.462,160.624 336.061,166.513 336.061 C 171.539 336.061,172.027 337.271,172.027 349.750 L 172.027 359.277 174.120 359.277 L 176.213 359.277 176.213 350.223 C 176.213 338.193,177.199 336.061,182.758 336.061 C 187.949 336.061,188.157 336.538,188.392 349.001 L 188.582 359.087 190.580 359.202 L 192.578 359.317 192.576 349.497 C 192.574 339.326,192.394 337.791,190.956 335.656 C 188.275 331.678,180.051 331.610,176.603 335.537 L 175.389 336.920 174.211 335.490 C 171.757 332.513,166.834 331.694,162.969 333.620 M206.470 332.892 C 204.621 333.300,201.713 334.672,201.713 335.136 C 201.713 336.850,203.212 338.133,204.206 337.269 C 204.985 336.591,208.087 335.882,210.149 335.910 C 213.628 335.957,215.219 337.534,215.675 341.390 C 215.938 343.605,216.123 343.525,210.086 343.822 C 202.369 344.202,198.668 346.909,198.668 352.174 C 198.668 359.727,207.814 362.812,214.017 357.351 L 215.707 355.864 216.137 357.570 C 216.556 359.235,216.604 359.277,218.084 359.277 L 219.600 359.277 219.600 349.451 C 219.600 338.164,219.328 336.522,217.133 334.595 C 215.165 332.867,210.186 332.072,206.470 332.892 M232.540 332.884 C 227.455 334.671,225.171 338.862,226.602 343.784 C 227.159 345.701,229.027 348.240,229.880 348.240 C 230.534 348.240,230.288 349.338,229.545 349.736 C 227.606 350.773,227.183 354.156,228.743 356.140 L 229.520 357.127 228.207 357.735 C 224.722 359.346,223.290 362.798,224.705 366.176 C 227.787 373.534,245.581 372.182,248.151 364.395 C 250.080 358.550,246.263 355.101,237.858 355.094 C 232.479 355.090,231.399 354.712,231.399 352.837 C 231.399 350.820,232.682 349.763,235.137 349.758 C 242.854 349.741,247.674 344.112,245.071 338.154 C 244.312 336.415,244.376 336.322,246.622 335.891 C 248.730 335.487,249.960 333.707,248.456 333.235 C 247.650 332.983,233.168 332.663,232.540 332.884 M259.372 333.521 C 254.934 335.676,252.544 340.253,252.580 346.527 C 252.636 356.535,259.927 361.964,269.903 359.425 C 273.398 358.535,273.644 358.349,273.644 356.599 C 273.644 354.859,273.306 354.755,270.645 355.682 C 263.322 358.232,256.898 354.590,256.898 347.888 L 256.898 346.731 265.747 346.629 L 274.596 346.527 274.725 345.005 C 275.465 336.269,266.902 329.864,259.372 333.521 M332.255 333.240 C 331.522 333.556,330.122 334.601,329.142 335.562 L 327.362 337.310 327.119 335.829 C 326.985 335.015,326.842 334.091,326.801 333.777 C 326.749 333.378,326.270 333.206,325.209 333.206 L 323.692 333.206 323.592 346.242 L 323.491 359.277 325.590 359.277 L 327.688 359.277 327.697 350.809 L 327.706 342.341 328.743 340.452 C 330.318 337.585,332.472 336.249,335.503 336.258 C 338.125 336.266,338.327 336.082,338.339 333.682 C 338.345 332.430,334.741 332.168,332.255 333.240 M143.373 333.252 C 143.224 333.401,143.102 339.318,143.102 346.400 L 143.102 359.277 145.010 359.277 L 146.918 359.277 146.818 346.242 L 146.717 333.206 145.181 333.093 C 144.336 333.031,143.523 333.103,143.373 333.252 M293.593 333.535 C 292.871 335.414,293.640 353.788,294.514 355.563 C 296.931 360.472,305.611 361.590,309.966 357.553 C 311.185 356.424,311.703 356.361,311.703 357.343 C 311.703 358.905,312.114 359.277,313.842 359.277 L 315.519 359.277 315.419 346.242 L 315.319 333.206 313.416 333.206 L 311.513 333.206 311.323 342.341 C 311.066 354.648,310.158 356.373,303.915 356.407 C 298.150 356.439,297.866 355.838,297.621 343.102 L 297.431 333.206 295.619 333.090 C 294.295 333.005,293.750 333.125,293.593 333.535 M99.524 336.779 C 100.994 337.592,102.439 340.391,102.296 342.150 L 102.188 343.482 95.718 343.482 L 89.248 343.482 89.355 342.173 C 89.757 337.221,95.152 334.359,99.524 336.779 M239.359 336.234 C 242.736 337.981,242.341 345.008,238.793 346.294 C 233.149 348.339,228.204 343.418,230.820 338.359 C 232.148 335.791,236.438 334.724,239.359 336.234 M267.233 336.673 C 268.723 337.427,269.896 339.575,269.967 341.679 L 270.029 343.482 263.645 343.587 C 256.494 343.704,256.466 343.693,257.291 341.119 C 258.748 336.572,263.145 334.606,267.233 336.673 M215.338 348.717 C 215.593 353.598,212.864 356.422,207.894 356.422 C 204.097 356.422,202.666 355.089,202.938 351.808 C 203.226 348.329,204.976 347.144,210.445 346.721 C 215.531 346.328,215.206 346.195,215.338 348.717 M241.692 358.936 C 244.741 359.589,245.648 362.892,243.441 365.307 C 240.355 368.686,229.790 368.452,228.349 364.974 C 226.341 360.127,233.063 357.085,241.692 358.936 " stroke="none" fill="#9c9c9c" fill-rule="evenodd"></path><path id="path1" d="M0.000 190.295 L 0.000 380.590 200.000 380.590 L 400.000 380.590 400.000 190.295 L 400.000 0.000 200.000 0.000 L 0.000 0.000 0.000 190.295 M220.268 79.256 L 220.364 127.495 266.700 127.591 L 313.035 127.688 313.141 142.341 C 313.199 150.400,313.153 157.379,313.039 157.850 L 312.830 158.706 266.597 158.706 L 220.364 158.706 220.268 206.565 L 220.171 254.424 204.664 254.524 L 189.156 254.623 189.060 206.760 L 188.963 158.896 142.816 158.800 L 96.670 158.703 96.670 143.100 L 96.670 127.498 142.680 127.498 C 184.285 127.498,188.713 127.440,188.922 126.896 C 189.049 126.565,189.153 104.812,189.153 78.556 L 189.153 30.819 204.662 30.919 L 220.171 31.018 220.268 79.256 M347.387 340.723 L 347.288 359.087 345.290 359.202 L 343.292 359.317 343.292 340.838 L 343.292 322.360 345.389 322.360 L 347.486 322.360 347.387 340.723 M146.190 323.905 C 148.277 325.022,147.619 328.830,145.340 328.830 C 142.756 328.830,141.706 325.878,143.724 324.290 C 144.870 323.389,145.145 323.346,146.190 323.905 M117.381 327.158 C 117.855 327.340,117.983 327.988,117.983 330.202 L 117.983 333.016 121.598 333.016 L 125.214 333.016 125.214 334.539 L 125.214 336.061 121.598 336.061 L 117.983 336.061 117.983 345.174 C 117.983 356.416,117.982 356.414,122.612 356.435 L 125.404 356.448 125.524 357.681 C 125.801 360.530,118.982 360.894,115.946 358.193 C 114.134 356.581,113.997 355.787,113.796 345.766 L 113.606 336.251 111.775 336.134 C 109.269 335.974,109.355 334.753,111.962 333.476 C 113.643 332.653,113.788 332.456,114.555 329.979 C 115.445 327.105,115.944 326.606,117.381 327.158 M76.323 333.226 C 79.177 333.969,79.350 334.156,78.744 335.833 C 78.176 337.403,78.111 337.417,75.331 336.582 C 66.426 333.909,61.050 340.224,69.509 343.421 C 70.527 343.806,71.703 344.266,72.122 344.443 C 72.540 344.620,73.654 345.092,74.596 345.491 C 82.194 348.710,81.643 357.400,73.709 359.466 C 70.167 360.389,65.808 360.096,62.322 358.701 C 61.715 358.458,61.255 354.710,61.832 354.710 C 61.929 354.710,62.913 355.080,64.020 355.533 C 68.654 357.427,74.933 356.546,75.887 353.868 C 76.804 351.297,75.386 349.805,69.838 347.502 C 63.368 344.816,61.945 343.519,61.728 340.110 C 61.341 334.038,67.779 331.002,76.323 333.226 M101.124 333.521 C 104.613 335.348,106.653 338.983,106.714 343.482 L 106.755 346.527 97.855 346.629 L 88.955 346.732 89.203 348.846 C 89.955 355.240,95.428 357.959,102.950 355.676 C 105.768 354.821,105.865 354.856,105.731 356.708 C 105.484 360.118,96.330 361.215,90.961 358.478 C 82.058 353.940,83.002 336.644,92.342 333.172 C 94.296 332.445,99.462 332.651,101.124 333.521 M171.483 333.356 C 172.335 333.743,173.562 334.703,174.211 335.490 L 175.389 336.920 176.603 335.537 C 180.051 331.610,188.275 331.678,190.956 335.656 C 192.394 337.791,192.574 339.326,192.576 349.497 L 192.578 359.317 190.580 359.202 L 188.582 359.087 188.392 349.001 C 188.157 336.538,187.949 336.061,182.758 336.061 C 177.199 336.061,176.213 338.193,176.213 350.223 L 176.213 359.277 174.120 359.277 L 172.027 359.277 172.027 349.750 C 172.027 337.271,171.539 336.061,166.513 336.061 C 160.624 336.061,159.510 338.462,159.484 351.209 L 159.467 359.317 157.469 359.202 L 155.471 359.087 155.471 346.147 L 155.471 333.206 156.962 333.206 C 158.287 333.206,158.491 333.333,158.800 334.348 C 158.991 334.976,159.221 335.724,159.312 336.010 C 159.429 336.379,159.699 336.249,160.235 335.568 C 162.329 332.906,168.025 331.785,171.483 333.356 M214.378 333.039 C 218.911 334.298,219.600 336.465,219.600 349.451 L 219.600 359.277 218.084 359.277 C 216.604 359.277,216.556 359.235,216.137 357.570 L 215.707 355.864 214.017 357.351 C 207.814 362.812,198.668 359.727,198.668 352.174 C 198.668 346.909,202.369 344.202,210.086 343.822 C 216.123 343.525,215.938 343.605,215.675 341.390 C 215.219 337.534,213.628 335.957,210.149 335.910 C 208.087 335.882,204.985 336.591,204.206 337.269 C 203.212 338.133,201.713 336.850,201.713 335.136 C 201.713 334.672,204.621 333.300,206.470 332.892 C 207.989 332.557,212.975 332.649,214.378 333.039 M248.456 333.235 C 249.960 333.707,248.730 335.487,246.622 335.891 C 244.376 336.322,244.312 336.415,245.071 338.154 C 247.674 344.112,242.854 349.741,235.137 349.758 C 232.682 349.763,231.399 350.820,231.399 352.837 C 231.399 354.712,232.479 355.090,237.858 355.094 C 246.263 355.101,250.080 358.550,248.151 364.395 C 245.581 372.182,227.787 373.534,224.705 366.176 C 223.290 362.798,224.722 359.346,228.207 357.735 L 229.520 357.127 228.743 356.140 C 227.183 354.156,227.606 350.773,229.545 349.736 C 230.288 349.338,230.534 348.240,229.880 348.240 C 229.027 348.240,227.159 345.701,226.602 343.784 C 225.171 338.862,227.455 334.671,232.540 332.884 C 233.168 332.663,247.650 332.983,248.456 333.235 M268.947 333.546 C 272.550 335.442,275.105 340.511,274.725 345.005 L 274.596 346.527 265.747 346.629 L 256.898 346.731 256.898 347.888 C 256.898 354.590,263.322 358.232,270.645 355.682 C 273.306 354.755,273.644 354.859,273.644 356.599 C 273.644 358.349,273.398 358.535,269.903 359.425 C 258.267 362.386,250.114 353.831,253.079 341.770 C 254.893 334.392,262.784 330.303,268.947 333.546 M338.339 333.682 C 338.327 336.082,338.125 336.266,335.503 336.258 C 332.472 336.249,330.318 337.585,328.743 340.452 L 327.706 342.341 327.697 350.809 L 327.688 359.277 325.590 359.277 L 323.491 359.277 323.592 346.242 L 323.692 333.206 325.209 333.206 C 326.270 333.206,326.749 333.378,326.801 333.777 C 326.842 334.091,326.985 335.015,327.119 335.829 L 327.362 337.310 329.142 335.562 C 332.256 332.505,338.351 331.259,338.339 333.682 M146.818 346.242 L 146.918 359.277 145.010 359.277 L 143.102 359.277 143.102 346.400 C 143.102 332.298,143.003 332.933,145.181 333.093 L 146.717 333.206 146.818 346.242 M297.621 343.102 C 297.866 355.838,298.150 356.439,303.915 356.407 C 310.158 356.373,311.066 354.648,311.323 342.341 L 311.513 333.206 313.416 333.206 L 315.319 333.206 315.419 346.242 L 315.519 359.277 313.842 359.277 C 312.114 359.277,311.703 358.905,311.703 357.343 C 311.703 356.361,311.185 356.424,309.966 357.553 C 306.820 360.469,300.168 360.761,296.493 358.145 C 293.956 356.338,293.639 354.832,293.501 343.927 C 293.356 332.393,293.249 332.938,295.619 333.090 L 297.431 333.206 297.621 343.102 M94.433 336.063 C 91.848 336.671,89.580 339.400,89.355 342.173 L 89.248 343.482 95.718 343.482 L 102.188 343.482 102.296 342.150 C 102.613 338.240,98.550 335.094,94.433 336.063 M232.394 336.475 C 226.837 340.846,231.994 348.758,238.793 346.294 C 242.341 345.008,242.736 337.981,239.359 336.234 C 237.673 335.363,233.631 335.502,232.394 336.475 M262.417 336.035 C 259.905 336.639,258.178 338.352,257.291 341.119 C 256.466 343.693,256.494 343.704,263.645 343.587 L 270.029 343.482 269.967 341.679 C 269.832 337.694,266.348 335.089,262.417 336.035 M210.445 346.721 C 204.976 347.144,203.226 348.329,202.938 351.808 C 202.666 355.089,204.097 356.422,207.894 356.422 C 212.864 356.422,215.593 353.598,215.338 348.717 C 215.206 346.195,215.531 346.328,210.445 346.721 M231.549 358.927 C 227.890 359.989,226.841 364.752,229.820 366.775 C 231.236 367.737,239.759 367.775,241.484 366.827 C 245.614 364.558,245.739 359.804,241.692 358.936 C 239.388 358.442,233.240 358.436,231.549 358.927 " stroke="none" fill="#ffffff" fill-rule="evenodd"></path></g></svg> 